<svg width="15" height="14" viewBox="0 0 15 14" fill="none" xmlns="http://www.w3.org/2000/svg">
<g clip-path="url(#clip0_123_2387)">
<path fill-rule="evenodd" clip-rule="evenodd" d="M3.52218 1.4963C2.83734 1.58841 2.47483 1.75687 2.21676 2.01516C1.95847 2.27323 1.78959 2.63617 1.69748 3.32101C1.60266 4.02598 1.60117 4.96036 1.60117 6.3V7.7C1.60117 9.03965 1.60266 9.97402 1.69748 10.679C1.78959 11.3638 1.95805 11.7263 2.21634 11.9844C2.47441 12.2427 2.83734 12.4116 3.52218 12.5037C4.22715 12.5985 5.16153 12.6 6.50117 12.6H7.90117C9.24082 12.6 10.1752 12.5985 10.8802 12.5037C11.565 12.4116 11.9275 12.2431 12.1856 11.9848C12.4439 11.7268 12.6128 11.3638 12.7049 10.679C12.7997 9.97402 12.8012 9.03965 12.8012 7.7V6.3C12.8012 4.96036 12.7997 4.02598 12.7049 3.32101C12.6128 2.63617 12.4443 2.27366 12.186 2.01559C11.9279 1.7573 11.565 1.58841 10.8802 1.4963C10.1752 1.40149 9.24082 1.4 7.90117 1.4H6.50117C5.16153 1.4 4.22715 1.40149 3.52218 1.4963ZM6.44994 5.11102e-07H7.9524C9.22873 -1.8765e-05 10.2576 -3.43695e-05 11.0668 0.108798C11.9069 0.221789 12.6143 0.463528 13.176 1.02564C13.7378 1.5872 13.9794 2.2945 14.0924 3.13439C14.2012 3.94358 14.2012 4.97245 14.2012 6.24878V7.75122C14.2012 9.02755 14.2012 10.0564 14.0924 10.8656C13.9794 11.7056 13.7377 12.413 13.1757 12.9746C12.6142 13.5365 11.9068 13.7782 11.0668 13.8912C10.2576 14 9.22872 14 7.95239 14H6.44995C5.17363 14 4.14475 14 3.33557 13.8912C2.49567 13.7782 1.78837 13.5366 1.22681 12.9748C0.664699 12.4132 0.422961 11.7057 0.309969 10.8656C0.201138 10.0564 0.201153 9.02755 0.201172 7.75123V6.24877C0.201153 4.97245 0.201138 3.94358 0.309969 3.13439C0.422947 2.29439 0.664639 1.58702 1.2266 1.02543C1.78819 0.463467 2.49556 0.221775 3.33557 0.108798C4.14475 -3.43695e-05 5.17362 -1.8765e-05 6.44994 5.11102e-07Z" fill="white"/>
<path d="M10.3513 4.90005C10.9312 4.90005 11.4013 4.42995 11.4013 3.85005C11.4013 3.27015 10.9312 2.80005 10.3513 2.80005C9.77137 2.80005 9.30127 3.27015 9.30127 3.85005C9.30127 4.42995 9.77137 4.90005 10.3513 4.90005Z" fill="white"/>
<path fill-rule="evenodd" clip-rule="evenodd" d="M7.20137 5.59995C6.42817 5.59995 5.80137 6.22675 5.80137 6.99995C5.80137 7.77315 6.42817 8.39995 7.20137 8.39995C7.97457 8.39995 8.60137 7.77315 8.60137 6.99995C8.60137 6.22675 7.97457 5.59995 7.20137 5.59995ZM4.40137 6.99995C4.40137 5.45355 5.65497 4.19995 7.20137 4.19995C8.74776 4.19995 10.0014 5.45355 10.0014 6.99995C10.0014 8.54635 8.74776 9.79995 7.20137 9.79995C5.65497 9.79995 4.40137 8.54635 4.40137 6.99995Z" fill="white"/>
</g>
<defs>
<clipPath id="clip0_123_2387">
<rect width="14" height="14" fill="white" transform="translate(0.201172)"/>
</clipPath>
</defs>
</svg>
