<svg width="196" height="27" viewBox="0 0 196 27" fill="none" xmlns="http://www.w3.org/2000/svg">
<g clip-path="url(#clip0_123_2335)">
<path d="M0.000488281 20.545V0.346191H3.88932L12.5376 14.6008H10.4771L18.9803 0.346191H22.8401L22.8981 20.545H18.4869L18.4579 7.06952H19.2705L12.4796 18.4097H10.361L3.42497 7.06952H4.41169V20.545H0.000488281Z" fill="white"/>
<path d="M25.0479 20.545L34.1025 0.346191H38.7457L47.8295 20.545H42.8958L35.4664 2.71233H37.3237L29.8655 20.545H25.0479ZM29.5751 16.2167L30.8232 12.6675H41.2706L42.5477 16.2167H29.5751Z" fill="white"/>
<path d="M49.937 20.545V0.346191H58.7304C60.549 0.346191 62.1162 0.644365 63.4317 1.24071C64.7475 1.81782 65.7633 2.65463 66.479 3.75114C67.195 4.84763 67.5528 6.15574 67.5528 7.67547C67.5528 9.17595 67.195 10.4745 66.479 11.571C65.7633 12.6482 64.7475 13.4754 63.4317 14.0525C62.1162 14.6296 60.549 14.9182 58.7304 14.9182H52.549L54.6383 12.8694V20.545H49.937ZM62.8515 20.545L57.7727 13.2157H62.7934L67.93 20.545H62.8515ZM54.6383 13.3889L52.549 11.1958H58.4693C59.9204 11.1958 61.0036 10.888 61.7196 10.2725C62.4356 9.63765 62.7934 8.77199 62.7934 7.67547C62.7934 6.55973 62.4356 5.69407 61.7196 5.07849C61.0036 4.46289 59.9204 4.15512 58.4693 4.15512H52.549L54.6383 1.93324V13.3889Z" fill="white"/>
<path d="M71.2778 20.545V0.346191H75.9794V20.545H71.2778Z" fill="white"/>
<path d="M85.0081 20.545V4.15512H78.5073V0.346191H96.2102V4.15512H89.7094V20.545H85.0081Z" fill="white"/>
<path d="M98.7397 20.545V0.346191H107.533C109.352 0.346191 110.919 0.644365 112.235 1.24071C113.55 1.81782 114.566 2.65463 115.282 3.75114C115.998 4.84763 116.356 6.15574 116.356 7.67547C116.356 9.17595 115.998 10.4745 115.282 11.571C114.566 12.6482 113.55 13.4754 112.235 14.0525C110.919 14.6296 109.352 14.9182 107.533 14.9182H101.352L103.441 12.8694V20.545H98.7397ZM111.654 20.545L106.575 13.2157H111.596L116.733 20.545H111.654ZM103.441 13.3889L101.352 11.1958H107.272C108.723 11.1958 109.807 10.888 110.522 10.2725C111.238 9.63765 111.596 8.77199 111.596 7.67547C111.596 6.55973 111.238 5.69407 110.522 5.07849C109.807 4.46289 108.723 4.15512 107.272 4.15512H101.352L103.441 1.93324V13.3889Z" fill="white"/>
<path d="M129.948 20.8913C128.342 20.8913 126.852 20.6316 125.479 20.1122C124.124 19.5928 122.944 18.8618 121.938 17.9192C120.951 16.9766 120.178 15.8705 119.616 14.6009C119.075 13.3312 118.804 11.9461 118.804 10.4457C118.804 8.94518 119.075 7.56013 119.616 6.29049C120.178 5.02085 120.961 3.91471 121.967 2.97211C122.973 2.0295 124.153 1.29849 125.508 0.779094C126.862 0.259698 128.332 0 129.919 0C131.525 0 132.995 0.259698 134.33 0.779094C135.684 1.29849 136.855 2.0295 137.842 2.97211C138.848 3.91471 139.631 5.02085 140.192 6.29049C140.753 7.54089 141.034 8.92593 141.034 10.4457C141.034 11.9461 140.753 13.3408 140.192 14.6297C139.631 15.8993 138.848 17.0055 137.842 17.9481C136.855 18.8714 135.684 19.5928 134.33 20.1122C132.995 20.6316 131.534 20.8913 129.948 20.8913ZM129.919 16.9093C130.828 16.9093 131.66 16.7554 132.415 16.4476C133.189 16.1398 133.866 15.6973 134.446 15.1202C135.027 14.5431 135.472 13.8602 135.781 13.0715C136.11 12.2828 136.275 11.4075 136.275 10.4457C136.275 9.48382 136.11 8.60854 135.781 7.81982C135.472 7.03109 135.027 6.34818 134.446 5.77108C133.885 5.19397 133.218 4.75152 132.444 4.44375C131.67 4.13595 130.828 3.98205 129.919 3.98205C129.01 3.98205 128.168 4.13595 127.394 4.44375C126.639 4.75152 125.972 5.19397 125.392 5.77108C124.811 6.34818 124.357 7.03109 124.028 7.81982C123.718 8.60854 123.563 9.48382 123.563 10.4457C123.563 11.3883 123.718 12.2636 124.028 13.0715C124.357 13.8602 124.801 14.5431 125.363 15.1202C125.943 15.6973 126.62 16.1398 127.394 16.4476C128.168 16.7554 129.01 16.9093 129.919 16.9093Z" fill="white"/>
<path d="M144.567 20.545V0.346191H148.456L160.442 14.8893H158.555V0.346191H163.199V20.545H159.339L147.324 6.00187H149.211V20.545H144.567Z" fill="white"/>
<path d="M168.005 20.545V0.346191H172.706V20.545H168.005Z" fill="white"/>
<path d="M175.206 20.545L183.941 8.57V11.9749L175.583 0.346191H180.923L186.699 8.45456L184.464 8.48344L190.152 0.346191H195.26L186.96 11.7729V8.42572L195.753 20.545H190.326L184.348 11.9749H186.495L180.604 20.545H175.206Z" fill="white"/>
<path fill-rule="evenodd" clip-rule="evenodd" d="M0 23.03H97.8656V26.7726H0V23.03Z" fill="#AD0034"/>
<path fill-rule="evenodd" clip-rule="evenodd" d="M97.8877 23.03H195.753V26.7726H97.8877V23.03Z" fill="#355D39"/>
</g>
<defs>
<clipPath id="clip0_123_2335">
<rect width="196" height="27" fill="white"/>
</clipPath>
</defs>
</svg>
