<svg width="755" height="75" viewBox="0 0 755 75" fill="none" xmlns="http://www.w3.org/2000/svg">
<path fill-rule="evenodd" clip-rule="evenodd" d="M364.441 66.436H728.441V74.436H364.441V66.436Z" fill="#355D39"/>
<path fill-rule="evenodd" clip-rule="evenodd" d="M0.359009 66.436H364.359V74.436H0.359009V66.436Z" fill="#AD0034"/>
<path d="M698.828 29.645L726.658 60.5C727.061 60.9033 727.263 61.347 727.263 61.831C727.263 62.2343 726.981 62.436 726.416 62.436H717.22C716.655 62.436 716.05 62.1133 715.405 61.468L693.02 36.058L672.329 61.468C672.087 61.71 671.805 61.952 671.482 62.194C671.159 62.3553 670.837 62.436 670.514 62.436H662.044C661.479 62.436 661.197 62.194 661.197 61.71C661.197 61.3067 661.399 60.9033 661.802 60.5L711.291 0.968002C711.775 0.322668 712.34 0 712.985 0H721.334C721.979 0 722.302 0.241999 722.302 0.725998C722.302 0.968 722.1 1.37134 721.697 1.936L698.828 29.645ZM662.165 1.936C661.762 1.53267 661.56 1.089 661.56 0.605C661.56 0.201667 661.842 0 662.407 0H671.361C671.926 0 672.531 0.322668 673.176 0.968002L688.18 17.908C688.341 18.2307 688.422 18.4727 688.422 18.634C688.422 18.876 688.341 19.0777 688.18 19.239L684.066 24.442C683.824 24.684 683.542 24.805 683.219 24.805C682.977 24.805 682.735 24.684 682.493 24.442L662.165 1.936Z" fill="white"/>
<path d="M629.575 2.178C629.575 1.53267 629.777 1.00833 630.18 0.605C630.664 0.201667 631.189 0 631.753 0H636.835C637.4 0 637.884 0.201667 638.287 0.605C638.771 1.00833 639.013 1.53267 639.013 2.178V60.258C639.013 60.8227 638.771 61.347 638.287 61.831C637.884 62.2343 637.4 62.436 636.835 62.436H631.753C631.189 62.436 630.664 62.2343 630.18 61.831C629.777 61.347 629.575 60.8227 629.575 60.258V2.178Z" fill="white"/>
<path d="M591.835 2.299C591.835 1.65367 592.036 1.12934 592.44 0.725998C592.924 0.241999 593.488 0 594.134 0H598.127C598.772 0 599.296 0.241999 599.7 0.725998C600.184 1.12934 600.426 1.65367 600.426 2.299V60.258C600.426 60.9033 600.184 61.4277 599.7 61.831C599.296 62.2343 598.772 62.436 598.127 62.436H593.65C593.085 62.436 592.399 62.2747 591.593 61.952C590.867 61.5487 590.262 61.0647 589.778 60.5L538.958 1.936C538.554 1.53267 538.353 1.089 538.353 0.605C538.353 0.201667 538.635 0 539.2 0H546.581C547.145 0 547.75 0.322668 548.396 0.968002L591.835 51.183V2.299ZM546.944 60.258C546.944 60.9033 546.742 61.4277 546.339 61.831C545.935 62.2343 545.411 62.436 544.766 62.436H540.652C540.006 62.436 539.482 62.2343 539.079 61.831C538.675 61.4277 538.474 60.9033 538.474 60.258V12.705C538.474 12.221 538.635 11.979 538.958 11.979C539.28 11.979 539.764 12.342 540.41 13.068L546.097 19.723C546.661 20.449 546.944 21.0943 546.944 21.659V60.258Z" fill="white"/>
<path d="M444.75 8.228C444.75 7.26 444.992 6.292 445.476 5.324C446.04 4.356 446.686 3.509 447.412 2.783C448.218 1.97634 449.106 1.331 450.074 0.847004C451.042 0.282335 452.01 0 452.978 0H501.62C502.588 0 503.556 0.282335 504.524 0.847004C505.492 1.331 506.339 1.97634 507.065 2.783C507.871 3.509 508.517 4.356 509.001 5.324C509.565 6.292 509.848 7.26 509.848 8.228V54.208C509.848 55.176 509.565 56.144 509.001 57.112C508.517 58.08 507.871 58.9673 507.065 59.774C506.339 60.5 505.492 61.1453 504.524 61.71C503.556 62.194 502.588 62.436 501.62 62.436H452.978C452.01 62.436 451.042 62.194 450.074 61.71C449.106 61.1453 448.218 60.5 447.412 59.774C446.686 58.9673 446.04 58.08 445.476 57.112C444.992 56.144 444.75 55.176 444.75 54.208V8.228ZM454.188 54.087H500.41V8.349H454.188V54.087Z" fill="white"/>
<path d="M362.646 2.299C362.646 1.65367 362.847 1.12934 363.251 0.725998C363.654 0.241999 364.178 0 364.824 0H401.124C403.786 0 406.246 0.524334 408.505 1.573C410.844 2.541 412.861 3.91234 414.555 5.687C416.329 7.381 417.701 9.39767 418.669 11.737C419.717 13.9957 420.242 16.456 420.242 19.118C420.242 21.3767 419.879 23.5143 419.153 25.531C418.427 27.5477 417.418 29.3627 416.128 30.976C414.837 32.5893 413.304 34.001 411.53 35.211C409.755 36.3403 407.859 37.147 405.843 37.631L423.025 61.105C423.186 61.347 423.267 61.6293 423.267 61.952C423.267 62.3553 423.025 62.557 422.541 62.557H414.918C414.353 62.557 413.748 62.3957 413.103 62.073C412.538 61.6697 412.054 61.1857 411.651 60.621L395.195 38.236H381.038C380.392 38.236 379.868 38.0343 379.465 37.631C379.061 37.2277 378.86 36.7033 378.86 36.058V32.307C378.86 31.6617 379.061 31.1373 379.465 30.734C379.868 30.3307 380.392 30.129 381.038 30.129H399.914C402.979 30.129 405.601 29.0803 407.779 26.983C410.037 24.8857 411.167 22.3043 411.167 19.239C411.167 16.1737 410.037 13.5923 407.779 11.495C405.601 9.39767 402.979 8.349 399.914 8.349H371.963V60.258C371.963 60.9033 371.721 61.4277 371.237 61.831C370.833 62.2343 370.309 62.436 369.664 62.436H364.824C364.178 62.436 363.654 62.2343 363.251 61.831C362.847 61.4277 362.646 60.9033 362.646 60.258V2.299Z" fill="white"/>
<path d="M285.881 2.178C285.881 1.61334 286.083 1.12934 286.486 0.725998C286.89 0.241999 287.414 0 288.059 0H344.566C345.212 0 345.736 0.241999 346.139 0.725998C346.543 1.12934 346.744 1.61334 346.744 2.178V6.05C346.744 7.58267 346.018 8.349 344.566 8.349H288.059C287.414 8.349 286.89 8.14734 286.486 7.744C286.083 7.26 285.881 6.69534 285.881 6.05V2.178ZM311.533 17.182C311.533 16.5367 311.735 16.0123 312.138 15.609C312.622 15.2057 313.187 15.004 313.832 15.004H318.672C319.318 15.004 319.842 15.2057 320.245 15.609C320.649 16.0123 320.85 16.5367 320.85 17.182V60.258C320.85 60.9033 320.649 61.4277 320.245 61.831C319.842 62.2343 319.318 62.436 318.672 62.436H313.832C313.187 62.436 312.622 62.2343 312.138 61.831C311.735 61.4277 311.533 60.9033 311.533 60.258V17.182Z" fill="white"/>
<path d="M260.431 2.178C260.431 1.53267 260.632 1.00833 261.036 0.605C261.52 0.201667 262.044 0 262.609 0H267.691C268.255 0 268.739 0.201667 269.143 0.605C269.627 1.00833 269.869 1.53267 269.869 2.178V60.258C269.869 60.8227 269.627 61.347 269.143 61.831C268.739 62.2343 268.255 62.436 267.691 62.436H262.609C262.044 62.436 261.52 62.2343 261.036 61.831C260.632 61.347 260.431 60.8227 260.431 60.258V2.178Z" fill="white"/>
<path d="M177.601 2.299C177.601 1.65367 177.802 1.12934 178.206 0.725998C178.609 0.241999 179.133 0 179.779 0H216.079C218.741 0 221.201 0.524334 223.46 1.573C225.799 2.541 227.816 3.91234 229.51 5.687C231.284 7.381 232.656 9.39767 233.624 11.737C234.672 13.9957 235.197 16.456 235.197 19.118C235.197 21.3767 234.834 23.5143 234.108 25.531C233.382 27.5477 232.373 29.3627 231.083 30.976C229.792 32.5893 228.259 34.001 226.485 35.211C224.71 36.3403 222.814 37.147 220.798 37.631L237.98 61.105C238.141 61.347 238.222 61.6293 238.222 61.952C238.222 62.3553 237.98 62.557 237.496 62.557H229.873C229.308 62.557 228.703 62.3957 228.058 62.073C227.493 61.6697 227.009 61.1857 226.606 60.621L210.15 38.236H195.993C195.347 38.236 194.823 38.0343 194.42 37.631C194.016 37.2277 193.815 36.7033 193.815 36.058V32.307C193.815 31.6617 194.016 31.1373 194.42 30.734C194.823 30.3307 195.347 30.129 195.993 30.129H214.869C217.934 30.129 220.556 29.0803 222.734 26.983C224.992 24.8857 226.122 22.3043 226.122 19.239C226.122 16.1737 224.992 13.5923 222.734 11.495C220.556 9.39767 217.934 8.349 214.869 8.349H186.918V60.258C186.918 60.9033 186.676 61.4277 186.192 61.831C185.788 62.2343 185.264 62.436 184.619 62.436H179.779C179.133 62.436 178.609 62.2343 178.206 61.831C177.802 61.4277 177.601 60.9033 177.601 60.258V2.299Z" fill="white"/>
<path d="M157.963 60.5C158.124 60.984 158.205 61.2663 158.205 61.347C158.205 62.073 157.801 62.436 156.995 62.436H150.219C149.573 62.436 149.089 62.1133 148.767 61.468L141.87 47.069H112.83C112.265 47.069 111.983 46.7867 111.983 46.222C111.983 45.98 112.023 45.7783 112.104 45.617L114.766 40.293C115.088 39.4863 115.693 39.083 116.581 39.083H137.998L123.236 7.26L96.8576 61.468C96.535 62.1133 96.051 62.436 95.4056 62.436H89.3556C88.549 62.436 88.1456 62.073 88.1456 61.347C88.1456 61.2663 88.2263 60.984 88.3876 60.5L117.065 2.299C117.387 1.65367 117.831 1.12934 118.396 0.725998C119.041 0.241999 119.686 0 120.332 0H126.019C126.664 0 127.269 0.241999 127.834 0.725998C128.479 1.12934 128.963 1.65367 129.286 2.299L157.963 60.5Z" fill="white"/>
<path d="M0 2.299C0 1.65367 0.201667 1.12934 0.605 0.725998C1.00833 0.241999 1.53267 0 2.178 0H5.808C6.69533 0 7.46167 0.322668 8.107 0.968002L34.364 31.823L60.016 0.968002C60.5807 0.322668 61.1857 0 61.831 0H68.244C68.8087 0 69.091 0.241999 69.091 0.725998C69.091 0.968 68.8893 1.37134 68.486 1.936L36.3 40.414C36.2193 40.5753 36.058 40.7367 35.816 40.898C35.332 41.2207 34.848 41.382 34.364 41.382C33.7993 41.382 33.275 41.2207 32.791 40.898C32.549 40.7367 32.3877 40.5753 32.307 40.414L7.865 12.1V60.258C7.865 60.9033 7.623 61.4277 7.139 61.831C6.73567 62.2343 6.21133 62.436 5.566 62.436H2.178C1.53267 62.436 1.00833 62.2343 0.605 61.831C0.201667 61.4277 0 60.9033 0 60.258V2.299ZM60.379 21.901C60.379 21.3363 60.6613 20.691 61.226 19.965L67.034 13.068C67.5987 12.342 68.0827 11.979 68.486 11.979C68.8087 11.979 68.97 12.221 68.97 12.705V60.258C68.97 60.9033 68.728 61.4277 68.244 61.831C67.8407 62.2343 67.3163 62.436 66.671 62.436H62.557C61.9117 62.436 61.3873 62.2343 60.984 61.831C60.5807 61.4277 60.379 60.9033 60.379 60.258V21.901Z" fill="white"/>
<path d="M738.834 56.111V45.5023H744.21C744.642 45.5023 745.111 45.6269 745.619 45.876C746.127 46.1156 746.558 46.4894 746.913 46.9973C747.277 47.4956 747.459 48.1281 747.459 48.8948C747.459 49.671 747.272 50.3323 746.898 50.8785C746.525 51.4152 746.069 51.8225 745.533 52.1004C745.006 52.3783 744.507 52.5173 744.038 52.5173H740.157V50.7923H743.319C743.635 50.7923 743.975 50.6342 744.34 50.3179C744.713 50.0017 744.9 49.5273 744.9 48.8948C744.9 48.2431 744.713 47.8023 744.34 47.5723C743.975 47.3423 743.654 47.2273 743.377 47.2273H741.163V56.111H738.834ZM745.245 51.1085L747.89 56.111H745.332L742.744 51.1085H745.245ZM742.859 62.436C741.268 62.436 739.778 62.1389 738.388 61.5448C736.999 60.9506 735.777 60.1265 734.723 59.0723C733.669 58.0181 732.844 56.7962 732.25 55.4067C731.656 54.0171 731.359 52.5269 731.359 50.936C731.359 49.3452 731.656 47.855 732.25 46.4654C732.844 45.0758 733.669 43.854 734.723 42.7998C735.777 41.7456 736.999 40.9215 738.388 40.3273C739.778 39.7331 741.268 39.436 742.859 39.436C744.45 39.436 745.94 39.7331 747.33 40.3273C748.719 40.9215 749.941 41.7456 750.995 42.7998C752.049 43.854 752.874 45.0758 753.468 46.4654C754.062 47.855 754.359 49.3452 754.359 50.936C754.359 52.5269 754.062 54.0171 753.468 55.4067C752.874 56.7962 752.049 58.0181 750.995 59.0723C749.941 60.1265 748.719 60.9506 747.33 61.5448C745.94 62.1389 744.45 62.436 742.859 62.436ZM742.859 59.676C744.469 59.676 745.935 59.2831 747.258 58.4973C748.58 57.7115 749.634 56.6573 750.42 55.3348C751.206 54.0123 751.599 52.546 751.599 50.936C751.599 49.326 751.206 47.8598 750.42 46.5373C749.634 45.2148 748.58 44.1606 747.258 43.3748C745.935 42.589 744.469 42.196 742.859 42.196C741.249 42.196 739.783 42.589 738.46 43.3748C737.138 44.1606 736.084 45.2148 735.298 46.5373C734.512 47.8598 734.119 49.326 734.119 50.936C734.119 52.546 734.512 54.0123 735.298 55.3348C736.084 56.6573 737.138 57.7115 738.46 58.4973C739.783 59.2831 741.249 59.676 742.859 59.676Z" fill="white"/>
</svg>
