<svg width="192" height="27" viewBox="0 0 192 27" fill="none" xmlns="http://www.w3.org/2000/svg">
<g clip-path="url(#clip0_123_2355)">
<path d="M0.000488281 20.545V0.346191H3.80996L12.2817 14.6008H10.2633L18.5929 0.346191H22.374L22.4308 20.545H18.1096L18.0812 7.06952H18.8772L12.2249 18.4097H10.1496L3.35508 7.06952H4.32167V20.545H0.000488281Z" fill="#0B0B0B"/>
<path d="M24.5366 20.545L33.4064 0.346191H37.9549L46.8533 20.545H42.0204L34.7425 2.71233H36.5619L29.2559 20.545H24.5366ZM28.9715 16.2167L30.1941 12.6675H40.4283L41.6793 16.2167H28.9715Z" fill="#0B0B0B"/>
<path d="M48.918 20.545V0.346191H57.5319C59.3134 0.346191 60.8486 0.644365 62.1373 1.24071C63.4262 1.81782 64.4212 2.65463 65.1223 3.75114C65.8237 4.84763 66.1743 6.15574 66.1743 7.67547C66.1743 9.17595 65.8237 10.4745 65.1223 11.571C64.4212 12.6482 63.4262 13.4754 62.1373 14.0525C60.8486 14.6296 59.3134 14.9182 57.5319 14.9182H51.4767L53.5233 12.8694V20.545H48.918ZM61.5689 20.545L56.5938 13.2157H61.512L66.5438 20.545H61.5689ZM53.5233 13.3889L51.4767 11.1958H57.2762C58.6976 11.1958 59.7587 10.888 60.4601 10.2725C61.1615 9.63765 61.512 8.77199 61.512 7.67547C61.512 6.55973 61.1615 5.69407 60.4601 5.07849C59.7587 4.46289 58.6976 4.15512 57.2762 4.15512H51.4767L53.5233 1.93324V13.3889Z" fill="#0B0B0B"/>
<path d="M69.8228 20.545V0.346191H74.4284V20.545H69.8228Z" fill="#0B0B0B"/>
<path d="M83.2734 20.545V4.15512H76.9053V0.346191H94.2469V4.15512H87.8788V20.545H83.2734Z" fill="#0B0B0B"/>
<path d="M96.7246 20.545V0.346191H105.339C107.12 0.346191 108.655 0.644365 109.944 1.24071C111.233 1.81782 112.228 2.65463 112.929 3.75114C113.63 4.84763 113.981 6.15574 113.981 7.67547C113.981 9.17595 113.63 10.4745 112.929 11.571C112.228 12.6482 111.233 13.4754 109.944 14.0525C108.655 14.6296 107.12 14.9182 105.339 14.9182H99.2833L101.33 12.8694V20.545H96.7246ZM109.376 20.545L104.4 13.2157H109.319L114.351 20.545H109.376ZM101.33 13.3889L99.2833 11.1958H105.083C106.504 11.1958 107.566 10.888 108.267 10.2725C108.968 9.63765 109.319 8.77199 109.319 7.67547C109.319 6.55973 108.968 5.69407 108.267 5.07849C107.566 4.46289 106.504 4.15512 105.083 4.15512H99.2833L101.33 1.93324V13.3889Z" fill="#0B0B0B"/>
<path d="M127.296 20.8913C125.723 20.8913 124.263 20.6316 122.918 20.1122C121.591 19.5928 120.435 18.8618 119.449 17.9192C118.483 16.9766 117.725 15.8705 117.175 14.6009C116.644 13.3312 116.379 11.9461 116.379 10.4457C116.379 8.94518 116.644 7.56013 117.175 6.29049C117.725 5.02085 118.492 3.91471 119.478 2.97211C120.463 2.0295 121.619 1.29849 122.946 0.779094C124.273 0.259698 125.713 0 127.267 0C128.84 0 130.281 0.259698 131.589 0.779094C132.915 1.29849 134.062 2.0295 135.028 2.97211C136.014 3.91471 136.781 5.02085 137.331 6.29049C137.881 7.54089 138.155 8.92593 138.155 10.4457C138.155 11.9461 137.881 13.3408 137.331 14.6297C136.781 15.8993 136.014 17.0055 135.028 17.9481C134.062 18.8714 132.915 19.5928 131.589 20.1122C130.281 20.6316 128.85 20.8913 127.296 20.8913ZM127.267 16.9093C128.158 16.9093 128.973 16.7554 129.712 16.4476C130.47 16.1398 131.134 15.6973 131.702 15.1202C132.271 14.5431 132.707 13.8602 133.01 13.0715C133.332 12.2828 133.493 11.4075 133.493 10.4457C133.493 9.48382 133.332 8.60854 133.01 7.81982C132.707 7.03109 132.271 6.34818 131.702 5.77108C131.153 5.19397 130.499 4.75152 129.741 4.44375C128.982 4.13595 128.158 3.98205 127.267 3.98205C126.377 3.98205 125.552 4.13595 124.794 4.44375C124.055 4.75152 123.401 5.19397 122.832 5.77108C122.264 6.34818 121.818 7.03109 121.496 7.81982C121.193 8.60854 121.041 9.48382 121.041 10.4457C121.041 11.3883 121.193 12.2636 121.496 13.0715C121.818 13.8602 122.254 14.5431 122.804 15.1202C123.373 15.6973 124.036 16.1398 124.794 16.4476C125.552 16.7554 126.377 16.9093 127.267 16.9093Z" fill="#0B0B0B"/>
<path d="M141.617 20.545V0.346191H145.427L157.168 14.8893H155.32V0.346191H159.869V20.545H156.087L144.318 6.00187H146.166V20.545H141.617Z" fill="#0B0B0B"/>
<path d="M164.576 20.545V0.346191H169.182V20.545H164.576Z" fill="#0B0B0B"/>
<path d="M171.63 20.545L180.187 8.57V11.9749L172 0.346191H177.231L182.888 8.45456L180.699 8.48344L186.271 0.346191H191.275L183.144 11.7729V8.42572L191.758 20.545H186.442L180.586 11.9749H182.689L176.918 20.545H171.63Z" fill="#0B0B0B"/>
<path fill-rule="evenodd" clip-rule="evenodd" d="M0 23.03H95.8683V26.7726H0V23.03Z" fill="#AD0034"/>
<path fill-rule="evenodd" clip-rule="evenodd" d="M95.8901 23.03H191.758V26.7726H95.8901V23.03Z" fill="#355D39"/>
</g>
<defs>
<clipPath id="clip0_123_2355">
<rect width="192" height="27" fill="white"/>
</clipPath>
</defs>
</svg>
