<svg width="755" height="75" viewBox="0 0 755 75" fill="none" xmlns="http://www.w3.org/2000/svg">
<path fill-rule="evenodd" clip-rule="evenodd" d="M364.441 66.8721H728.441V74.8721H364.441V66.8721Z" fill="#355D39"/>
<path fill-rule="evenodd" clip-rule="evenodd" d="M0.359009 66.8721H364.359V74.8721H0.359009V66.8721Z" fill="#AD0034"/>
<path d="M698.828 30.081L726.658 60.936C727.061 61.3394 727.263 61.783 727.263 62.267C727.263 62.6704 726.981 62.872 726.416 62.872H717.22C716.655 62.872 716.05 62.5494 715.405 61.904L693.02 36.494L672.329 61.904C672.087 62.146 671.805 62.388 671.482 62.63C671.159 62.7914 670.837 62.872 670.514 62.872H662.044C661.479 62.872 661.197 62.63 661.197 62.146C661.197 61.7427 661.399 61.3394 661.802 60.936L711.291 1.40404C711.775 0.758703 712.34 0.436035 712.985 0.436035H721.334C721.979 0.436035 722.302 0.678035 722.302 1.16203C722.302 1.40403 722.1 1.80737 721.697 2.37204L698.828 30.081ZM662.165 2.37204C661.762 1.96871 661.56 1.52504 661.56 1.04103C661.56 0.637702 661.842 0.436035 662.407 0.436035H671.361C671.926 0.436035 672.531 0.758703 673.176 1.40404L688.18 18.344C688.341 18.6667 688.422 18.9087 688.422 19.07C688.422 19.312 688.341 19.5137 688.18 19.675L684.066 24.878C683.824 25.12 683.542 25.241 683.219 25.241C682.977 25.241 682.735 25.12 682.493 24.878L662.165 2.37204Z" fill="#252C48"/>
<path d="M629.575 2.61404C629.575 1.9687 629.777 1.44437 630.18 1.04103C630.664 0.637702 631.189 0.436035 631.753 0.436035H636.835C637.4 0.436035 637.884 0.637702 638.287 1.04103C638.771 1.44437 639.013 1.9687 639.013 2.61404V60.694C639.013 61.2587 638.771 61.783 638.287 62.267C637.884 62.6704 637.4 62.872 636.835 62.872H631.753C631.189 62.872 630.664 62.6704 630.18 62.267C629.777 61.783 629.575 61.2587 629.575 60.694V2.61404Z" fill="#252C48"/>
<path d="M591.835 2.73504C591.835 2.08971 592.036 1.56537 592.44 1.16203C592.924 0.678035 593.488 0.436035 594.134 0.436035H598.127C598.772 0.436035 599.296 0.678035 599.7 1.16203C600.184 1.56537 600.426 2.08971 600.426 2.73504V60.694C600.426 61.3394 600.184 61.8637 599.7 62.267C599.296 62.6704 598.772 62.872 598.127 62.872H593.65C593.085 62.872 592.399 62.7107 591.593 62.388C590.867 61.9847 590.262 61.5007 589.778 60.936L538.958 2.37204C538.554 1.96871 538.353 1.52504 538.353 1.04103C538.353 0.637702 538.635 0.436035 539.2 0.436035H546.581C547.145 0.436035 547.75 0.758703 548.396 1.40404L591.835 51.619V2.73504ZM546.944 60.694C546.944 61.3394 546.742 61.8637 546.339 62.267C545.935 62.6704 545.411 62.872 544.766 62.872H540.652C540.006 62.872 539.482 62.6704 539.079 62.267C538.675 61.8637 538.474 61.3394 538.474 60.694V13.141C538.474 12.657 538.635 12.415 538.958 12.415C539.28 12.415 539.764 12.778 540.41 13.504L546.097 20.159C546.661 20.885 546.944 21.5304 546.944 22.095V60.694Z" fill="#252C48"/>
<path d="M444.75 8.66404C444.75 7.69604 444.992 6.72804 445.476 5.76004C446.04 4.79204 446.686 3.94504 447.412 3.21904C448.218 2.41237 449.106 1.76704 450.074 1.28304C451.042 0.71837 452.01 0.436035 452.978 0.436035H501.62C502.588 0.436035 503.556 0.71837 504.524 1.28304C505.492 1.76704 506.339 2.41237 507.065 3.21904C507.871 3.94504 508.517 4.79204 509.001 5.76004C509.565 6.72804 509.848 7.69604 509.848 8.66404V54.644C509.848 55.612 509.565 56.58 509.001 57.548C508.517 58.516 507.871 59.4034 507.065 60.21C506.339 60.936 505.492 61.5814 504.524 62.146C503.556 62.63 502.588 62.872 501.62 62.872H452.978C452.01 62.872 451.042 62.63 450.074 62.146C449.106 61.5814 448.218 60.936 447.412 60.21C446.686 59.4034 446.04 58.516 445.476 57.548C444.992 56.58 444.75 55.612 444.75 54.644V8.66404ZM454.188 54.523H500.41V8.78504H454.188V54.523Z" fill="#252C48"/>
<path d="M362.646 2.73504C362.646 2.08971 362.847 1.56537 363.251 1.16203C363.654 0.678035 364.178 0.436035 364.824 0.436035H401.124C403.786 0.436035 406.246 0.960369 408.505 2.00904C410.844 2.97704 412.861 4.34837 414.555 6.12304C416.329 7.81704 417.701 9.8337 418.669 12.173C419.717 14.4317 420.242 16.892 420.242 19.554C420.242 21.8127 419.879 23.9504 419.153 25.967C418.427 27.9837 417.418 29.7987 416.128 31.412C414.837 33.0254 413.304 34.437 411.53 35.647C409.755 36.7764 407.859 37.583 405.843 38.067L423.025 61.541C423.186 61.783 423.267 62.0654 423.267 62.388C423.267 62.7914 423.025 62.993 422.541 62.993H414.918C414.353 62.993 413.748 62.8317 413.103 62.509C412.538 62.1057 412.054 61.6217 411.651 61.057L395.195 38.672H381.038C380.392 38.672 379.868 38.4704 379.465 38.067C379.061 37.6637 378.86 37.1394 378.86 36.494V32.743C378.86 32.0977 379.061 31.5734 379.465 31.17C379.868 30.7667 380.392 30.565 381.038 30.565H399.914C402.979 30.565 405.601 29.5164 407.779 27.419C410.037 25.3217 411.167 22.7404 411.167 19.675C411.167 16.6097 410.037 14.0284 407.779 11.931C405.601 9.8337 402.979 8.78504 399.914 8.78504H371.963V60.694C371.963 61.3394 371.721 61.8637 371.237 62.267C370.833 62.6704 370.309 62.872 369.664 62.872H364.824C364.178 62.872 363.654 62.6704 363.251 62.267C362.847 61.8637 362.646 61.3394 362.646 60.694V2.73504Z" fill="#252C48"/>
<path d="M285.881 2.61404C285.881 2.04937 286.083 1.56537 286.486 1.16203C286.89 0.678035 287.414 0.436035 288.059 0.436035H344.566C345.212 0.436035 345.736 0.678035 346.139 1.16203C346.543 1.56537 346.744 2.04937 346.744 2.61404V6.48604C346.744 8.0187 346.018 8.78504 344.566 8.78504H288.059C287.414 8.78504 286.89 8.58337 286.486 8.18004C286.083 7.69604 285.881 7.13137 285.881 6.48604V2.61404ZM311.533 17.618C311.533 16.9727 311.735 16.4484 312.138 16.045C312.622 15.6417 313.187 15.44 313.832 15.44H318.672C319.318 15.44 319.842 15.6417 320.245 16.045C320.649 16.4484 320.85 16.9727 320.85 17.618V60.694C320.85 61.3394 320.649 61.8637 320.245 62.267C319.842 62.6704 319.318 62.872 318.672 62.872H313.832C313.187 62.872 312.622 62.6704 312.138 62.267C311.735 61.8637 311.533 61.3394 311.533 60.694V17.618Z" fill="#252C48"/>
<path d="M260.431 2.61404C260.431 1.9687 260.632 1.44437 261.036 1.04103C261.52 0.637702 262.044 0.436035 262.609 0.436035H267.691C268.255 0.436035 268.739 0.637702 269.143 1.04103C269.627 1.44437 269.869 1.9687 269.869 2.61404V60.694C269.869 61.2587 269.627 61.783 269.143 62.267C268.739 62.6704 268.255 62.872 267.691 62.872H262.609C262.044 62.872 261.52 62.6704 261.036 62.267C260.632 61.783 260.431 61.2587 260.431 60.694V2.61404Z" fill="#252C48"/>
<path d="M177.601 2.73504C177.601 2.08971 177.802 1.56537 178.206 1.16203C178.609 0.678035 179.133 0.436035 179.779 0.436035H216.079C218.741 0.436035 221.201 0.960369 223.46 2.00904C225.799 2.97704 227.816 4.34837 229.51 6.12304C231.284 7.81704 232.656 9.8337 233.624 12.173C234.672 14.4317 235.197 16.892 235.197 19.554C235.197 21.8127 234.834 23.9504 234.108 25.967C233.382 27.9837 232.373 29.7987 231.083 31.412C229.792 33.0254 228.259 34.437 226.485 35.647C224.71 36.7764 222.814 37.583 220.798 38.067L237.98 61.541C238.141 61.783 238.222 62.0654 238.222 62.388C238.222 62.7914 237.98 62.993 237.496 62.993H229.873C229.308 62.993 228.703 62.8317 228.058 62.509C227.493 62.1057 227.009 61.6217 226.606 61.057L210.15 38.672H195.993C195.347 38.672 194.823 38.4704 194.42 38.067C194.016 37.6637 193.815 37.1394 193.815 36.494V32.743C193.815 32.0977 194.016 31.5734 194.42 31.17C194.823 30.7667 195.347 30.565 195.993 30.565H214.869C217.934 30.565 220.556 29.5164 222.734 27.419C224.992 25.3217 226.122 22.7404 226.122 19.675C226.122 16.6097 224.992 14.0284 222.734 11.931C220.556 9.8337 217.934 8.78504 214.869 8.78504H186.918V60.694C186.918 61.3394 186.676 61.8637 186.192 62.267C185.788 62.6704 185.264 62.872 184.619 62.872H179.779C179.133 62.872 178.609 62.6704 178.206 62.267C177.802 61.8637 177.601 61.3394 177.601 60.694V2.73504Z" fill="#252C48"/>
<path d="M157.963 60.936C158.124 61.42 158.205 61.7024 158.205 61.783C158.205 62.509 157.801 62.872 156.995 62.872H150.219C149.573 62.872 149.089 62.5494 148.767 61.904L141.87 47.505H112.83C112.265 47.505 111.983 47.2227 111.983 46.658C111.983 46.416 112.023 46.2144 112.104 46.053L114.766 40.729C115.088 39.9224 115.693 39.519 116.581 39.519H137.998L123.236 7.69604L96.8576 61.904C96.535 62.5494 96.051 62.872 95.4056 62.872H89.3556C88.549 62.872 88.1456 62.509 88.1456 61.783C88.1456 61.7024 88.2263 61.42 88.3876 60.936L117.065 2.73504C117.387 2.08971 117.831 1.56537 118.396 1.16203C119.041 0.678035 119.686 0.436035 120.332 0.436035H126.019C126.664 0.436035 127.269 0.678035 127.834 1.16203C128.479 1.56537 128.963 2.08971 129.286 2.73504L157.963 60.936Z" fill="#252C48"/>
<path d="M0 2.73504C0 2.08971 0.201667 1.56537 0.605 1.16203C1.00833 0.678035 1.53267 0.436035 2.178 0.436035H5.808C6.69533 0.436035 7.46167 0.758703 8.107 1.40404L34.364 32.259L60.016 1.40404C60.5807 0.758703 61.1857 0.436035 61.831 0.436035H68.244C68.8087 0.436035 69.091 0.678035 69.091 1.16203C69.091 1.40403 68.8893 1.80737 68.486 2.37204L36.3 40.85C36.2193 41.0114 36.058 41.1727 35.816 41.334C35.332 41.6567 34.848 41.818 34.364 41.818C33.7993 41.818 33.275 41.6567 32.791 41.334C32.549 41.1727 32.3877 41.0114 32.307 40.85L7.865 12.536V60.694C7.865 61.3394 7.623 61.8637 7.139 62.267C6.73567 62.6704 6.21133 62.872 5.566 62.872H2.178C1.53267 62.872 1.00833 62.6704 0.605 62.267C0.201667 61.8637 0 61.3394 0 60.694V2.73504ZM60.379 22.337C60.379 21.7724 60.6613 21.127 61.226 20.401L67.034 13.504C67.5987 12.778 68.0827 12.415 68.486 12.415C68.8087 12.415 68.97 12.657 68.97 13.141V60.694C68.97 61.3394 68.728 61.8637 68.244 62.267C67.8407 62.6704 67.3163 62.872 66.671 62.872H62.557C61.9117 62.872 61.3873 62.6704 60.984 62.267C60.5807 61.8637 60.379 61.3394 60.379 60.694V22.337Z" fill="#252C48"/>
<path d="M738.834 56.5471V45.9383H744.21C744.642 45.9383 745.111 46.0629 745.619 46.3121C746.127 46.5517 746.558 46.9254 746.913 47.4333C747.277 47.9317 747.459 48.5642 747.459 49.3308C747.459 50.1071 747.272 50.7683 746.898 51.3146C746.525 51.8512 746.069 52.2585 745.533 52.5364C745.006 52.8144 744.507 52.9533 744.038 52.9533H740.157V51.2283H743.319C743.635 51.2283 743.975 51.0702 744.34 50.7539C744.713 50.4377 744.9 49.9633 744.9 49.3308C744.9 48.6792 744.713 48.2383 744.34 48.0083C743.975 47.7783 743.654 47.6633 743.377 47.6633H741.163V56.5471H738.834ZM745.245 51.5446L747.89 56.5471H745.332L742.744 51.5446H745.245ZM742.859 62.8721C741.268 62.8721 739.778 62.575 738.388 61.9808C736.999 61.3867 735.777 60.5625 734.723 59.5083C733.669 58.4542 732.844 57.2323 732.25 55.8427C731.656 54.4531 731.359 52.9629 731.359 51.3721C731.359 49.7812 731.656 48.291 732.25 46.9014C732.844 45.5119 733.669 44.29 734.723 43.2358C735.777 42.1817 736.999 41.3575 738.388 40.7633C739.778 40.1692 741.268 39.8721 742.859 39.8721C744.45 39.8721 745.94 40.1692 747.33 40.7633C748.719 41.3575 749.941 42.1817 750.995 43.2358C752.049 44.29 752.874 45.5119 753.468 46.9014C754.062 48.291 754.359 49.7812 754.359 51.3721C754.359 52.9629 754.062 54.4531 753.468 55.8427C752.874 57.2323 752.049 58.4542 750.995 59.5083C749.941 60.5625 748.719 61.3867 747.33 61.9808C745.94 62.575 744.45 62.8721 742.859 62.8721ZM742.859 60.1121C744.469 60.1121 745.935 59.7192 747.258 58.9333C748.58 58.1475 749.634 57.0933 750.42 55.7708C751.206 54.4483 751.599 52.9821 751.599 51.3721C751.599 49.7621 751.206 48.2958 750.42 46.9733C749.634 45.6508 748.58 44.5967 747.258 43.8108C745.935 43.025 744.469 42.6321 742.859 42.6321C741.249 42.6321 739.783 43.025 738.46 43.8108C737.138 44.5967 736.084 45.6508 735.298 46.9733C734.512 48.2958 734.119 49.7621 734.119 51.3721C734.119 52.9821 734.512 54.4483 735.298 55.7708C736.084 57.0933 737.138 58.1475 738.46 58.9333C739.783 59.7192 741.249 60.1121 742.859 60.1121Z" fill="#252C48"/>
</svg>
