<svg width="15" height="14" viewBox="0 0 15 14" fill="none" xmlns="http://www.w3.org/2000/svg">
<g clip-path="url(#clip0_123_2383)">
<path d="M12.1363 2.03607C11.4946 1.38781 10.7302 0.873833 9.88768 0.524101C9.04519 0.174369 8.14151 -0.00411264 7.22933 -0.000934864C3.40733 -0.000934864 0.292328 3.11406 0.292328 6.93607C0.292328 8.16107 0.614328 9.35107 1.21633 10.4011L0.236328 13.9991L3.91133 13.0331C4.92633 13.5861 6.06733 13.8801 7.22933 13.8801C11.0513 13.8801 14.1663 10.7651 14.1663 6.94307C14.1663 5.08807 13.4453 3.34507 12.1363 2.03607ZM7.22933 12.7041C6.19333 12.7041 5.17833 12.4241 4.28933 11.8991L4.07933 11.7731L1.89533 12.3471L2.47633 10.2191L2.33633 10.0021C1.76075 9.08294 1.45513 8.02054 1.45433 6.93607C1.45433 3.75807 4.04433 1.16807 7.22233 1.16807C8.76233 1.16807 10.2113 1.77007 11.2963 2.86207C11.8336 3.39684 12.2593 4.03293 12.5489 4.73346C12.8385 5.434 12.9862 6.18504 12.9833 6.94307C12.9973 10.1211 10.4073 12.7041 7.22933 12.7041ZM10.3933 8.39207C10.2183 8.30807 9.36433 7.88807 9.21033 7.82507C9.04933 7.76907 8.93733 7.74107 8.81833 7.90907C8.69933 8.08407 8.37033 8.47607 8.27233 8.58807C8.17433 8.70707 8.06933 8.72107 7.89433 8.63007C7.71933 8.54607 7.15933 8.35707 6.50133 7.76907C5.98333 7.30707 5.64033 6.74007 5.53533 6.56507C5.43733 6.39007 5.52133 6.29907 5.61233 6.20807C5.68933 6.13107 5.78733 6.00506 5.87133 5.90706C5.95533 5.80906 5.99033 5.73207 6.04633 5.62007C6.10233 5.50107 6.07433 5.40307 6.03233 5.31907C5.99033 5.23507 5.64033 4.38107 5.50033 4.03107C5.36033 3.69507 5.21333 3.73707 5.10833 3.73007H4.77233C4.65333 3.73007 4.47133 3.77207 4.31033 3.94707C4.15633 4.12207 3.70833 4.54207 3.70833 5.39607C3.70833 6.25007 4.33133 7.07607 4.41533 7.18807C4.49933 7.30707 5.64033 9.05707 7.37633 9.80607C7.78933 9.98807 8.11133 10.0931 8.36333 10.1701C8.77633 10.3031 9.15433 10.2821 9.45533 10.2401C9.79133 10.1911 10.4843 9.82007 10.6243 9.41407C10.7713 9.00807 10.7713 8.66507 10.7223 8.58807C10.6733 8.51107 10.5683 8.47607 10.3933 8.39207Z" fill="white"/>
</g>
<defs>
<clipPath id="clip0_123_2383">
<rect width="14" height="14" fill="white" transform="translate(0.201172)"/>
</clipPath>
</defs>
</svg>
